<svg width="1300" height="843" viewBox="0 0 1300 843" fill="none" xmlns="http://www.w3.org/2000/svg">
<g clip-path="url(#clip0_528_206159)">
<path d="M0 1399.68H2159M0 1359.69H2159M0 1319.71H2159M0 1279.73H2159M0 1239.75H2159M0 1199.77H2159M0 1159.79H2159M0 1119.81H2159M0 1079.82H2159M0 1039.84H2159M0 999.861H2159M0 959.882H2159M0 919.9H2159M0 879.919H2159M0 839.938H2159M0 799.956H2159M0 759.975H2159M0 719.993H2159M0 680.012H2159M0 640.03H2159M0 600.049H2159M0 560.067H2159M0 520.086H2159M0 480.104H2159M0 440.123H2159M0 400.141H2159M0 360.158H2159M0 320.176H2159M0 280.195H2159M0 240.213H2159M0 200.232H2159M0 160.25H2159M0 120.269H2159M0 80.2872H2159M0 40.3057H2159M0 0.324219H2159M0.499769 0.823987V1400.18M40.4813 0.823987V1400.18M80.4627 0.823987V1400.18M120.444 0.823987V1400.18M160.426 0.823987V1400.18M200.407 0.823987V1400.18M240.389 0.823987V1400.18M280.37 0.823987V1400.18M320.352 0.823987V1400.18M360.333 0.823987V1400.18M400.315 0.823987V1400.18M440.296 0.823987V1400.18M480.278 0.823987V1400.18M520.259 0.823987V1400.18M560.241 0.823987V1400.18M600.222 0.823987V1400.18M640.206 0.823987V1400.18M680.187 0.823987V1400.18M720.169 0.823987V1400.18M760.15 0.823987V1400.18M800.132 0.823987V1400.18M840.113 0.823987V1400.18M880.095 0.823987V1400.18M920.076 0.823987V1400.18M960.058 0.823987V1400.18M1000.04 0.823987V1400.18M1040.02 0.823987V1400.18M1080 0.823987V1400.18M1119.98 0.823987V1400.18M1159.96 0.823987V1400.18M1199.94 0.823987V1400.18M1239.93 0.823987V1400.18M1279.91 0.823987V1400.18M1319.89 0.823987V1400.18M1359.87 0.823987V1400.18M1399.85 0.823987V1400.18M1439.83 0.823987V1400.18M1479.81 0.823987V1400.18M1519.8 0.823987V1400.18M1559.78 0.823987V1400.18M1599.76 0.823987V1400.18M1639.74 0.823987V1400.18M1679.72 0.823987V1400.18M1719.7 0.823987V1400.18M1759.69 0.823987V1400.18M1799.67 0.823987V1400.18M1839.65 0.823987V1400.18M1879.63 0.823987V1400.18M1919.61 0.823987V1400.18M1959.59 0.823987V1400.18M1999.57 0.823987V1400.18M2039.56 0.823987V1400.18M2079.54 0.823987V1400.18M2119.52 0.823987V1400.18M2159.5 0.823987V1400.18" stroke="#F3F4F7" stroke-width="0.999537"/>
<path d="M1319.39 520.583H1359.37V560.565H1319.39V520.583ZM999.537 520.583H1039.52V560.565H999.537V520.583ZM999.537 960.38H1039.52V1000.36H999.537V960.38ZM719.667 640.528H759.648V680.509H719.667V640.528ZM79.963 80.7867H119.945V120.768H79.963V80.7867ZM919.574 80.7867H959.556V120.768H919.574V80.7867ZM1519.3 240.713H1559.28V280.694H1519.3V240.713ZM999.537 240.713H1039.52V280.694H999.537V240.713ZM1119.48 360.657H1159.46V400.639H1119.48V360.657ZM1479.32 400.639H1519.3V440.62H1479.32V400.639ZM799.63 200.731H839.611V240.713H799.63V200.731ZM239.889 560.565H279.87V600.546H239.889V560.565ZM1439.33 680.509H1479.32V720.491H1439.33V680.509ZM1599.26 960.38H1639.24V1000.36H1599.26V960.38ZM1719.2 600.546H1759.19V640.528H1719.2V600.546ZM1879.13 800.454H1919.11V840.435H1879.13V800.454ZM1799.17 200.731H1839.15V240.713H1799.17V200.731ZM79.963 360.657H119.945V400.639H79.963V360.657ZM79.963 1000.36H119.945V1040.34H79.963V1000.36ZM479.778 160.75H519.759V200.731H479.778V160.75ZM319.852 320.676H359.833V360.657H319.852V320.676ZM559.741 560.565H599.722V600.546H559.741V560.565ZM559.741 1200.27H599.722V1240.25H559.741V1200.27ZM559.741 920.398H599.722V960.38H559.741V920.398ZM1359.37 160.75H1399.35V200.731H1359.37V160.75Z" fill="#F6F7F9"/>
</g>
<defs>
<clipPath id="clip0_528_206159">
<rect width="2160" height="1400.35" fill="white" transform="translate(0 -0.175781)"/>
</clipPath>
</defs>
</svg>
