<svg width="32" height="32" viewBox="0 0 32 32" fill="none" xmlns="http://www.w3.org/2000/svg">
<g clip-path="url(#clip0_528_255638)">
<mask id="mask0_528_255638" style="mask-type:luminance" maskUnits="userSpaceOnUse" x="0" y="0" width="32" height="32">
<path d="M32 0H0V32H32V0Z" fill="white"/>
</mask>
<g mask="url(#mask0_528_255638)">
<path d="M16 14V21.3333" stroke="black" stroke-width="1.06667" stroke-linecap="round" stroke-linejoin="round"/>
<path d="M17.6667 15.332H15.1667C14.8572 15.332 14.5605 15.4549 14.3417 15.6737C14.1229 15.8925 14 16.1892 14 16.4986C14 16.8081 14.1229 17.1048 14.3417 17.3236C14.5605 17.5424 14.8572 17.6653 15.1667 17.6653H16.8333C17.1428 17.6653 17.4395 17.7882 17.6583 18.007C17.8771 18.2258 18 18.5226 18 18.832C18 19.1414 17.8771 19.4381 17.6583 19.6569C17.4395 19.8757 17.1428 19.9986 16.8333 19.9986H14" stroke="black" stroke-width="1.06667" stroke-linecap="round" stroke-linejoin="round"/>
<path d="M17.8308 6.83203H10.4974C10.0112 6.83203 9.54485 7.02519 9.20103 7.369C8.85722 7.71282 8.66406 8.17914 8.66406 8.66537V23.3321C8.66406 23.8183 8.85722 24.2846 9.20103 24.6284C9.54485 24.9723 10.0112 25.1654 10.4974 25.1654H21.4974C21.9837 25.1654 22.45 24.9723 22.7938 24.6284C23.1376 24.2846 23.3308 23.8183 23.3308 23.3321V12.3321L17.8308 6.83203Z" stroke="black" stroke-width="1.2" stroke-linecap="round" stroke-linejoin="round"/>
<path d="M18 7V12.3333H23.3335" stroke="black" stroke-width="1.2" stroke-linecap="round" stroke-linejoin="round"/>
</g>
</g>
<defs>
<clipPath id="clip0_528_255638">
<rect width="32" height="32" fill="white"/>
</clipPath>
</defs>
</svg>
