<svg width="32" height="32" viewBox="0 0 32 32" fill="none" xmlns="http://www.w3.org/2000/svg">
<g clip-path="url(#clip0_528_255649)">
<g clip-path="url(#clip1_528_255649)">
<path d="M23.9984 15.9985L25.2343 9.18139L18.7126 11.5196L23.9984 15.9985ZM23.2876 20.5622C23.4634 20.2814 23.3783 19.9111 23.0974 19.7353C22.8166 19.5594 22.4463 19.6446 22.2705 19.9254L23.2876 20.5622ZM22.6394 10.5343C22.5903 10.4746 22.5403 10.4156 22.4895 10.3571L21.5838 11.1443C21.6275 11.1946 21.6705 11.2454 21.7127 11.2967L22.6394 10.5343ZM22.4895 10.3571C21.1296 8.79227 19.2501 7.7714 17.1972 7.48242L17.0299 8.6707C18.7964 8.91937 20.4136 9.79778 21.5838 11.1443L22.4895 10.3571ZM17.1972 7.48242C15.1442 7.19343 13.056 7.65578 11.3169 8.78434L11.9701 9.79096C13.4666 8.81988 15.2634 8.42204 17.0299 8.6707L17.1972 7.48242ZM11.3169 8.78434C9.57784 9.9129 8.30496 11.6317 7.73264 13.6244L8.886 13.9556C9.37847 12.2411 10.4737 10.7621 11.9701 9.79096L11.3169 8.78434ZM7.73264 13.6244C7.16031 15.617 7.32706 17.7493 8.20219 19.6287L9.29004 19.1222C8.53702 17.505 8.39354 15.6702 8.886 13.9556L7.73264 13.6244ZM8.20219 19.6287C9.07732 21.5081 10.6019 23.0082 12.4953 23.8527L12.9841 22.7567C11.3549 22.0301 10.043 20.7394 9.29004 19.1222L8.20219 19.6287ZM12.4953 23.8527C14.3887 24.6972 16.5234 24.8293 18.5064 24.2247L18.1565 23.0768C16.4501 23.5971 14.6133 23.4834 12.9841 22.7567L12.4953 23.8527ZM18.5064 24.2247C20.4895 23.6201 22.1874 22.3194 23.2876 20.5622L22.2705 19.9254C21.3238 21.4374 19.8628 22.5566 18.1565 23.0768L18.5064 24.2247Z" fill="black"/>
<path d="M15.5 12.5V17H19.5" stroke="black" stroke-width="1.2" stroke-linecap="round"/>
</g>
</g>
<defs>
<clipPath id="clip0_528_255649">
<rect width="32" height="32" fill="white"/>
</clipPath>
<clipPath id="clip1_528_255649">
<rect width="32" height="32" fill="white"/>
</clipPath>
</defs>
</svg>
